<mxfile host="app.diagrams.net" modified="2023-09-07T23:00:22.445Z" agent="Mozilla/5.0 (Windows NT 10.0; Win64; x64) AppleWebKit/537.36 (KHTML, like Gecko) Chrome/116.0.0.0 Safari/537.36" version="21.7.2" etag="I6mhAPFZ61A1E41g7Vgu" type="github">
  <diagram name="Page-1" id="sAk0y5euBnxJDw8ys2CL">
    <mxGraphModel>
      <root>
        <mxCell id="0" />
        <mxCell id="1" parent="0" />
      </root>
    </mxGraphModel>
  </diagram>
</mxfile>
